<svg xmlns="http://www.w3.org/2000/svg" width="67" height="67" viewBox="0 0 67 67">
  <g id="Group_111" data-name="Group 111" transform="translate(-1048 -5234.5)">
    <g id="Group_84" data-name="Group 84" transform="translate(1048 5235)">
      <g id="Ellipse_2" data-name="Ellipse 2" transform="translate(0 -0.499)" fill="none" stroke="#404040" stroke-width="2">
        <circle cx="33.5" cy="33.5" r="33.5" stroke="none"/>
        <circle cx="33.5" cy="33.5" r="32.5" fill="none"/>
      </g>
      <path id="Icon_awesome-heart" data-name="Icon awesome-heart" d="M25.483,3.187a7.538,7.538,0,0,0-10.286.75L14.111,5.056,13.025,3.937A7.537,7.537,0,0,0,2.74,3.187a7.915,7.915,0,0,0-.546,11.46L12.86,25.66a1.728,1.728,0,0,0,2.5,0L26.023,14.647a7.91,7.91,0,0,0-.54-11.46Z" transform="translate(18.78 19.654)" fill="none" stroke="#404040" stroke-width="2"/>
    </g>
  </g>
</svg>
